<?xml version="1.0" standalone="no"?>
<!DOCTYPE svg PUBLIC "-//W3C//DTD SVG 20010904//EN"
 "http://www.w3.org/TR/2001/REC-SVG-20010904/DTD/svg10.dtd">
<svg version="1.0" xmlns="http://www.w3.org/2000/svg"
 width="1080.000000pt" height="1080.000000pt" viewBox="0 0 1080.000000 1080.000000"
 preserveAspectRatio="xMidYMid meet">

<g transform="translate(0.000000,1080.000000) scale(0.100000,-0.100000)"
fill="#000000" stroke="none">
<path d="M3240 7536 l0 -603 993 -438 c545 -241 999 -440 1007 -442 14 -4
2013 859 2033 877 8 7 -17 1198 -25 1204 -1 2 -451 -195 -998 -436 -587 -259
-1003 -437 -1015 -435 -11 3 -454 197 -985 432 -531 235 -975 431 -987 436
l-23 9 0 -604z"/>
<path d="M3240 6673 l0 -168 1005 -454 1004 -453 1013 447 c557 245 1016 450
1021 454 4 4 6 73 5 153 l-3 145 -1010 -419 c-555 -230 -1017 -419 -1025 -420
-8 -1 -449 191 -980 427 -531 235 -980 434 -997 441 l-33 14 0 -167z"/>
<path d="M6760 6166 l-525 -232 -3 -686 -2 -686 62 -6 c88 -8 990 -38 994 -33
2 2 3 425 2 940 l-3 936 -525 -233z"/>
<path d="M3240 5440 l0 -940 78 1 c42 0 280 8 527 17 l450 17 9 683 c4 376 6
685 3 688 -4 4 -996 445 -1044 465 l-23 9 0 -940z"/>
<path d="M1930 3680 l0 -490 135 0 135 0 0 212 c0 186 2 210 15 198 8 -8 58
-76 112 -150 l99 -135 54 -3 55 -3 109 151 c59 82 112 150 117 150 5 0 9 -93
9 -210 l0 -210 130 0 130 0 0 490 0 490 -104 0 -105 0 -152 -217 c-84 -120
-161 -228 -170 -241 -17 -22 -18 -21 -186 217 l-168 240 -107 1 -108 0 0 -490z"/>
<path d="M3210 3856 c0 -333 5 -387 46 -475 52 -114 145 -176 300 -201 208
-33 410 74 464 246 18 61 20 92 20 405 l0 339 -135 0 -135 0 0 -317 c0 -298
-1 -320 -20 -350 -29 -49 -65 -67 -126 -67 -62 1 -96 20 -121 67 -16 28 -18
68 -21 350 l-3 317 -135 0 -134 0 0 -314z"/>
<path d="M4220 3680 l0 -490 135 0 135 0 0 240 c0 132 3 240 8 239 4 0 97
-108 207 -239 l200 -239 108 -1 107 0 0 490 0 490 -135 0 -135 0 -2 -245 -3
-245 -209 245 -209 245 -103 0 -104 0 0 -490z"/>
<path d="M5561 4148 c-7 -20 -176 -496 -297 -835 l-44 -123 139 0 138 0 24 80
23 80 154 -2 155 -3 21 -75 22 -75 138 -3 c112 -2 137 0 134 11 -2 8 -77 228
-168 490 l-164 477 -133 0 c-129 0 -134 -1 -142 -22z m183 -413 c20 -66 39
-128 42 -137 5 -16 -3 -18 -79 -18 -46 0 -86 2 -89 5 -3 3 12 61 33 128 46
144 48 151 53 146 2 -2 20 -58 40 -124z"/>
<path d="M6153 4028 c41 -79 118 -227 171 -329 l96 -186 0 -161 0 -162 135 0
135 0 0 162 0 161 170 323 c94 178 170 326 170 329 0 3 -71 5 -158 5 l-158 0
-74 -166 c-41 -92 -79 -166 -85 -166 -5 1 -42 74 -82 164 l-71 163 -162 3
-162 3 75 -143z"/>
<path d="M7140 3680 l0 -490 365 0 365 0 0 125 0 125 -230 0 -230 0 0 60 0 60
215 0 215 0 0 120 0 120 -212 2 -213 3 -3 58 -3 57 231 0 230 0 0 125 0 125
-365 0 -365 0 0 -490z"/>
<path d="M8040 3680 l0 -490 135 0 135 0 0 155 0 155 45 0 45 0 77 -155 78
-155 153 0 153 0 -12 23 c-7 12 -49 88 -95 170 -46 81 -84 151 -84 155 0 5 17
21 38 37 177 133 159 450 -32 547 -82 42 -129 48 -388 48 l-248 0 0 -490z
m486 216 c34 -39 33 -104 -1 -136 -22 -21 -38 -25 -120 -28 l-95 -4 0 102 0
102 96 -4 c91 -4 98 -6 120 -32z"/>
<path d="M3570 2959 c-70 -15 -111 -97 -95 -191 14 -80 92 -124 176 -99 l39
12 0 64 0 65 -51 0 c-36 0 -49 -4 -47 -12 3 -7 17 -14 31 -16 23 -3 27 -8 27
-36 0 -38 -25 -51 -65 -36 -37 14 -55 49 -55 108 0 43 5 57 26 78 21 22 32 25
70 22 36 -3 45 0 50 15 3 10 4 20 2 21 -10 9 -78 12 -108 5z"/>
<path d="M6560 2959 c-74 -16 -117 -112 -91 -201 23 -76 86 -111 168 -91 l38
9 3 67 3 67 -51 0 c-37 0 -50 -4 -48 -12 3 -7 17 -14 31 -16 23 -3 27 -8 27
-36 0 -38 -25 -51 -65 -36 -37 14 -55 49 -55 106 0 41 5 57 25 79 22 23 32 26
71 23 36 -3 45 0 50 15 3 10 4 20 2 21 -10 9 -78 12 -108 5z"/>
<path d="M2970 2815 l0 -145 85 0 c78 0 85 2 85 20 0 18 -7 20 -60 20 l-60 0
0 40 0 40 55 0 c52 0 55 1 55 25 0 24 -3 25 -56 25 l-55 0 3 38 3 37 58 3 c49
3 57 6 57 22 0 18 -7 20 -85 20 l-85 0 0 -145z"/>
<path d="M3200 2815 c0 -138 1 -145 20 -145 19 0 20 7 20 100 l0 101 56 -83
c85 -124 88 -127 107 -128 15 0 17 14 17 150 l0 150 -26 0 -26 0 4 -101 c3
-71 1 -96 -7 -85 -165 241 -165 241 -165 41z"/>
<path d="M3740 2815 l0 -145 90 0 c83 0 90 2 90 20 0 16 -8 19 -62 22 l-63 3
0 35 0 35 53 3 c48 3 52 5 52 28 0 23 -3 24 -56 24 l-55 0 3 38 3 37 58 3 c49
3 57 6 57 22 0 18 -7 20 -85 20 l-85 0 0 -145z"/>
<path d="M3970 2816 l0 -146 26 0 27 0 -5 101 c-3 55 -2 96 1 92 4 -4 36 -52
71 -105 93 -140 100 -137 100 52 0 142 -1 150 -20 150 -18 0 -20 -8 -22 -100
l-3 -99 -66 97 c-44 66 -72 98 -87 100 -22 3 -22 2 -22 -142z"/>
<path d="M4250 2815 l0 -145 25 0 c24 0 25 3 25 60 l0 60 60 0 60 0 0 -60 c0
-57 1 -60 25 -60 l25 0 0 145 0 145 -25 0 c-24 0 -25 -3 -25 -60 l0 -60 -60 0
-60 0 0 60 c0 57 -1 60 -25 60 l-25 0 0 -145z"/>
<path d="M4603 2928 c-6 -18 -29 -84 -51 -145 l-41 -113 25 0 c19 0 28 7 35
30 10 28 14 30 61 30 46 0 51 -2 61 -30 9 -23 18 -30 39 -30 l27 0 -41 113
c-22 61 -45 127 -51 145 -7 23 -16 32 -32 32 -16 0 -25 -9 -32 -32z m62 -139
c5 -16 1 -19 -29 -19 -20 0 -36 3 -36 6 0 3 8 31 17 62 l16 57 14 -44 c7 -24
15 -52 18 -62z"/>
<path d="M4800 2816 l0 -146 25 0 c24 0 25 3 25 60 0 81 23 78 74 -12 23 -40
32 -48 57 -48 l29 0 -26 43 c-15 23 -33 50 -41 59 -14 15 -13 19 11 40 36 31
44 85 18 118 -17 21 -30 25 -96 28 l-76 4 0 -146z m118 92 c7 -7 12 -24 12
-40 0 -29 -23 -48 -59 -48 -18 0 -21 6 -21 50 0 48 1 50 28 50 15 0 33 -5 40
-12z"/>
<path d="M5060 2815 l0 -145 25 0 25 0 0 145 0 145 -25 0 -25 0 0 -145z"/>
<path d="M5255 2948 c-31 -87 -95 -270 -95 -274 0 -2 11 -4 24 -4 18 0 27 8
35 30 9 28 13 30 60 30 46 0 50 -2 60 -30 7 -23 16 -30 35 -30 15 0 26 2 26 4
0 4 -83 237 -95 269 -8 20 -43 23 -50 5z m43 -114 c17 -60 16 -64 -22 -64
l-34 0 16 60 c18 65 23 66 40 4z"/>
<path d="M5600 2815 l0 -145 25 0 25 0 0 145 0 145 -25 0 -25 0 0 -145z"/>
<path d="M5720 2815 c0 -138 1 -145 20 -145 19 0 20 7 20 101 l0 100 71 -105
c102 -151 109 -148 109 44 l0 150 -26 0 -26 0 4 -101 c3 -71 1 -96 -7 -85
-165 241 -165 241 -165 41z"/>
<path d="M5980 2941 c0 -16 8 -20 43 -23 l42 -3 3 -122 c3 -123 3 -123 27
-123 24 0 24 0 27 123 l3 122 43 3 c34 3 42 7 42 23 0 18 -8 19 -115 19 -107
0 -115 -1 -115 -19z"/>
<path d="M6250 2815 l0 -145 85 0 c78 0 85 2 85 20 0 18 -7 20 -60 20 l-60 0
0 40 0 40 55 0 c52 0 55 1 55 25 0 24 -3 25 -56 25 l-55 0 3 38 3 37 58 3 c49
3 57 6 57 22 0 18 -7 20 -85 20 l-85 0 0 -145z"/>
<path d="M6730 2816 l0 -146 30 0 30 0 0 60 c0 81 17 80 67 -5 22 -38 36 -51
56 -53 15 -2 27 0 27 5 0 5 -16 32 -35 61 l-35 53 26 23 c20 17 27 32 28 64 1
62 -18 76 -114 80 l-80 4 0 -146z m128 92 c7 -7 12 -24 12 -40 0 -29 -23 -48
-59 -48 -18 0 -21 6 -21 50 0 48 1 50 28 50 15 0 33 -5 40 -12z"/>
<path d="M7051 2938 c-40 -110 -91 -256 -91 -262 0 -3 11 -6 24 -6 18 0 27 8
35 30 9 28 13 30 60 30 46 0 50 -2 60 -30 7 -23 16 -30 35 -30 15 0 26 2 26 4
0 4 -83 237 -95 269 -10 24 -44 21 -54 -5z m47 -104 c17 -60 16 -64 -24 -64
-30 0 -35 3 -29 18 3 9 11 36 18 59 13 48 19 46 35 -13z"/>
<path d="M7240 2811 l0 -151 55 0 c67 0 114 18 143 54 44 57 37 169 -14 217
-22 20 -37 24 -105 28 l-79 3 0 -151z m145 84 c20 -20 25 -34 25 -78 0 -73
-26 -107 -81 -107 l-39 0 0 105 0 105 35 0 c25 0 44 -8 60 -25z"/>
<path d="M7585 2948 c-43 -117 -95 -264 -95 -270 0 -4 11 -8 24 -8 19 0 26 7
31 30 6 29 9 30 59 30 48 0 52 -2 63 -30 9 -23 17 -30 38 -30 18 0 25 4 22 13
-2 6 -26 72 -52 145 -38 107 -51 132 -67 132 -10 0 -21 -6 -23 -12z m39 -112
c9 -30 16 -57 16 -60 0 -3 -16 -6 -36 -6 -29 0 -35 3 -30 16 4 9 11 36 17 60
6 24 13 44 14 44 2 0 11 -24 19 -54z"/>
</g>
</svg>
